<svg viewBox="0 0 512 512" xmlns="http://www.w3.org/2000/svg" fill-rule="evenodd" clip-rule="evenodd" stroke-linejoin="round" stroke-miterlimit="2"><g fill="#189eff" fill-rule="nonzero"><path d="M404.367 451.1c-21.779-16.334-53.539-28.584-87.568-41.742-40.381-15.427-86.207-33.122-120.236-60.799-39.02-30.853-58.076-69.873-58.076-119.328 0-44.465 18.148-82.124 53.085-109.347 39.02-30.853 98.004-46.733 170.599-46.733 19.964 0 39.474 1.36 57.169 3.63 1.361 0 3.176-.454 3.63-2.27.907-1.36.453-3.175-.908-4.083C376.69 29.14 317.252 6.454 255.547 6.454c-66.697 0-129.31 25.862-176.498 73.049C31.862 126.69 6 189.303 6 256c0 66.697 25.862 129.31 73.05 176.498 47.186 47.187 109.8 73.049 176.497 73.049 53.992 0 105.263-16.788 148.366-49.002.908-.907 1.361-1.815 1.361-2.722.454-.908 0-1.815-.907-2.723z"/><path d="M504.186 232.86c0-.907-.454-1.814-1.362-2.268-51.724-43.104-93.92-60.799-145.19-60.799-27.223 0-48.095 5.445-62.16 16.334-12.25 9.528-18.603 22.233-18.603 37.66 0 42.649 52.632 62.613 112.977 85.299 31.307 11.796 63.52 23.593 93.466 40.38.454.455.908.455 1.815.455.454 0 .908 0 1.362-.454.907-.454 1.814-.908 2.268-2.269 11.343-29.038 17.242-59.891 17.242-91.198-.454-7.26-.908-14.973-1.815-23.14z"/></g></svg>